<svg version="1.1" xmlns="http://www.w3.org/2000/svg" xmlns:xlink="http://www.w3.org/1999/xlink" width="1557.75" height="1091"><defs/><g><g transform="translate(-10,-198) scale(1,1)"><rect fill="#C0C0C0" stroke="none" x="1023.75" y="215" width="27.200000000000045" height="15" opacity="0.2"/></g><g transform="translate(-10,-198) scale(1,1)"><rect fill="#C0C0C0" stroke="none" x="1023.75" y="229" width="68" height="25" opacity="0.2"/></g><g transform="translate(-10,-198) scale(1,1)"><rect fill="#ffffff" stroke="none" x="1016.75" y="223" width="68" height="24"/></g><g transform="translate(-10,-198) scale(1,1)"><path fill="none" stroke="#000000" d="M 1016.75 223 L 1084.75 223 L 1084.75 247 L 1016.75 247 L 1016.75 223 Z Z" stroke-miterlimit="10"/></g><g transform="translate(-10,-198) scale(1,1)"><rect fill="#ffffff" stroke="none" x="1016.75" y="208" width="27.200000000000045" height="15"/></g><g transform="translate(-10,-198) scale(1,1)"><path fill="none" stroke="#000000" d="M 1016.75 208 L 1043.95 208 L 1043.95 223 L 1016.75 223 L 1016.75 208 Z Z" stroke-miterlimit="10"/></g><g transform="translate(-10,-198) scale(1,1)"><rect fill="#ffffff" stroke="none" x="1016.75" y="222" width="68" height="25"/></g><g transform="translate(-10,-198) scale(1,1)"><path fill="none" stroke="#000000" d="M 1016.75 222 L 1084.75 222 L 1084.75 247 L 1016.75 247 L 1016.75 222 Z Z" stroke-miterlimit="10"/></g><g transform="translate(-10,-198) scale(1,1)"><g><path fill="none" stroke="none"/><text fill="#000000" stroke="none" font-family="Arial" font-size="13px" font-style="normal" font-weight="bold" text-decoration="none" x="1024.75" y="242.5">goboxapi</text></g></g><g transform="translate(-10,-198) scale(1,1)"><rect fill="#C0C0C0" stroke="none" x="195.25" y="473" width="38.80000000000001" height="15" opacity="0.2"/></g><g transform="translate(-10,-198) scale(1,1)"><rect fill="#C0C0C0" stroke="none" x="195.25" y="487" width="97" height="25" opacity="0.2"/></g><g transform="translate(-10,-198) scale(1,1)"><rect fill="#ffffff" stroke="none" x="188.25" y="481" width="97" height="24"/></g><g transform="translate(-10,-198) scale(1,1)"><path fill="none" stroke="#000000" d="M 188.25 481 L 285.25 481 L 285.25 505 L 188.25 505 L 188.25 481 Z Z" stroke-miterlimit="10"/></g><g transform="translate(-10,-198) scale(1,1)"><rect fill="#ffffff" stroke="none" x="188.25" y="466" width="38.80000000000001" height="15"/></g><g transform="translate(-10,-198) scale(1,1)"><path fill="none" stroke="#000000" d="M 188.25 466 L 227.05 466 L 227.05 481 L 188.25 481 L 188.25 466 Z Z" stroke-miterlimit="10"/></g><g transform="translate(-10,-198) scale(1,1)"><rect fill="#ffffff" stroke="none" x="188.25" y="480" width="97" height="25"/></g><g transform="translate(-10,-198) scale(1,1)"><path fill="none" stroke="#000000" d="M 188.25 480 L 285.25 480 L 285.25 505 L 188.25 505 L 188.25 480 Z Z" stroke-miterlimit="10"/></g><g transform="translate(-10,-198) scale(1,1)"><g><path fill="none" stroke="none"/><text fill="#000000" stroke="none" font-family="Arial" font-size="13px" font-style="normal" font-weight="bold" text-decoration="none" x="196.25" y="500.5">authentication</text></g></g><g transform="translate(-10,-198) scale(1,1)"><rect fill="#C0C0C0" stroke="none" x="1397.75" y="473" width="27.200000000000045" height="15" opacity="0.2"/></g><g transform="translate(-10,-198) scale(1,1)"><rect fill="#C0C0C0" stroke="none" x="1397.75" y="487" width="68" height="25" opacity="0.2"/></g><g transform="translate(-10,-198) scale(1,1)"><rect fill="#ffffff" stroke="none" x="1390.75" y="481" width="68" height="24"/></g><g transform="translate(-10,-198) scale(1,1)"><path fill="none" stroke="#000000" d="M 1390.75 481 L 1458.75 481 L 1458.75 505 L 1390.75 505 L 1390.75 481 Z Z" stroke-miterlimit="10"/></g><g transform="translate(-10,-198) scale(1,1)"><rect fill="#ffffff" stroke="none" x="1390.75" y="466" width="27.200000000000045" height="15"/></g><g transform="translate(-10,-198) scale(1,1)"><path fill="none" stroke="#000000" d="M 1390.75 466 L 1417.95 466 L 1417.95 481 L 1390.75 481 L 1390.75 466 Z Z" stroke-miterlimit="10"/></g><g transform="translate(-10,-198) scale(1,1)"><rect fill="#ffffff" stroke="none" x="1390.75" y="480" width="68" height="25"/></g><g transform="translate(-10,-198) scale(1,1)"><path fill="none" stroke="#000000" d="M 1390.75 480 L 1458.75 480 L 1458.75 505 L 1390.75 505 L 1390.75 480 Z Z" stroke-miterlimit="10"/></g><g transform="translate(-10,-198) scale(1,1)"><g><path fill="none" stroke="none"/><text fill="#000000" stroke="none" font-family="Arial" font-size="13px" font-style="normal" font-weight="bold" text-decoration="none" x="1409.25" y="500.5">client</text></g></g><g transform="translate(-10,-198) scale(1,1)"><rect fill="#C0C0C0" stroke="none" x="680.25" y="473" width="27.200000000000045" height="15" opacity="0.2"/></g><g transform="translate(-10,-198) scale(1,1)"><rect fill="#C0C0C0" stroke="none" x="680.25" y="487" width="68" height="25" opacity="0.2"/></g><g transform="translate(-10,-198) scale(1,1)"><rect fill="#ffffff" stroke="none" x="673.25" y="481" width="68" height="24"/></g><g transform="translate(-10,-198) scale(1,1)"><path fill="none" stroke="#000000" d="M 673.25 481 L 741.25 481 L 741.25 505 L 673.25 505 L 673.25 481 Z Z" stroke-miterlimit="10"/></g><g transform="translate(-10,-198) scale(1,1)"><rect fill="#ffffff" stroke="none" x="673.25" y="466" width="27.200000000000045" height="15"/></g><g transform="translate(-10,-198) scale(1,1)"><path fill="none" stroke="#000000" d="M 673.25 466 L 700.45 466 L 700.45 481 L 673.25 481 L 673.25 466 Z Z" stroke-miterlimit="10"/></g><g transform="translate(-10,-198) scale(1,1)"><rect fill="#ffffff" stroke="none" x="673.25" y="480" width="68" height="25"/></g><g transform="translate(-10,-198) scale(1,1)"><path fill="none" stroke="#000000" d="M 673.25 480 L 741.25 480 L 741.25 505 L 673.25 505 L 673.25 480 Z Z" stroke-miterlimit="10"/></g><g transform="translate(-10,-198) scale(1,1)"><g><path fill="none" stroke="none"/><text fill="#000000" stroke="none" font-family="Arial" font-size="13px" font-style="normal" font-weight="bold" text-decoration="none" x="695.25" y="500.5">utils</text></g></g><g transform="translate(-10,-198) scale(1,1)"><rect fill="#C0C0C0" stroke="none" x="1496.75" y="473" width="27.200000000000045" height="15" opacity="0.2"/></g><g transform="translate(-10,-198) scale(1,1)"><rect fill="#C0C0C0" stroke="none" x="1496.75" y="487" width="68" height="25" opacity="0.2"/></g><g transform="translate(-10,-198) scale(1,1)"><rect fill="#ffffff" stroke="none" x="1489.75" y="481" width="68" height="24"/></g><g transform="translate(-10,-198) scale(1,1)"><path fill="none" stroke="#000000" d="M 1489.75 481 L 1557.75 481 L 1557.75 505 L 1489.75 505 L 1489.75 481 Z Z" stroke-miterlimit="10"/></g><g transform="translate(-10,-198) scale(1,1)"><rect fill="#ffffff" stroke="none" x="1489.75" y="466" width="27.200000000000045" height="15"/></g><g transform="translate(-10,-198) scale(1,1)"><path fill="none" stroke="#000000" d="M 1489.75 466 L 1516.95 466 L 1516.95 481 L 1489.75 481 L 1489.75 466 Z Z" stroke-miterlimit="10"/></g><g transform="translate(-10,-198) scale(1,1)"><rect fill="#ffffff" stroke="none" x="1489.75" y="480" width="68" height="25"/></g><g transform="translate(-10,-198) scale(1,1)"><path fill="none" stroke="#000000" d="M 1489.75 480 L 1557.75 480 L 1557.75 505 L 1489.75 505 L 1489.75 480 Z Z" stroke-miterlimit="10"/></g><g transform="translate(-10,-198) scale(1,1)"><g><path fill="none" stroke="none"/><text fill="#000000" stroke="none" font-family="Arial" font-size="13px" font-style="normal" font-weight="bold" text-decoration="none" x="1506.75" y="500.5">myws</text></g></g><g transform="translate(-10,-198) scale(1,1)"><path fill="none" stroke="#000000" d="M 237 465 Q 237 451 1016 236" stroke-miterlimit="10"/></g><g transform="translate(-10,-198) scale(1,1)"><path fill="#FFFFFF" stroke="none" d="M 1002.252281435133 237.8623356757977 C 1002.252281435133 233.9963420757977 1005.386287835133 230.8623356757977 1009.252281435133 230.8623356757977 C 1013.118275035133 230.8623356757977 1016.252281435133 233.9963420757977 1016.252281435133 237.8623356757977 C 1016.252281435133 241.7283292757977 1013.118275035133 244.8623356757977 1009.252281435133 244.8623356757977 C 1005.386287835133 244.8623356757977 1002.252281435133 241.7283292757977 1002.252281435133 237.8623356757977 Z"/></g><g transform="translate(-10,-198) scale(1,1)"><path fill="none" stroke="#000000" d="M 1002.252281435133 237.8623356757977 C 1002.252281435133 233.9963420757977 1005.386287835133 230.8623356757977 1009.252281435133 230.8623356757977 C 1013.118275035133 230.8623356757977 1016.252281435133 233.9963420757977 1016.252281435133 237.8623356757977 C 1016.252281435133 241.7283292757977 1013.118275035133 244.8623356757977 1009.252281435133 244.8623356757977 C 1005.386287835133 244.8623356757977 1002.252281435133 241.7283292757977 1002.252281435133 237.8623356757977 Z" stroke-miterlimit="10"/></g><g transform="translate(-10,-198) scale(1,1)"><path fill="none" stroke="#000000" d="M 1002.504562870266 239.72467135159542 L 1016 236" stroke-miterlimit="10"/></g><g transform="translate(-10,-198) scale(1,1)"><path fill="none" stroke="#000000" d="M 1011.1146171109307 244.61005424066474 L 1007.3899457593353 231.11461711093068" stroke-miterlimit="10"/></g><g transform="translate(-10,-198) scale(1,1)"><path fill="none" stroke="#000000" d="M 708 465 Q 708 451 1018 248" stroke-miterlimit="10"/></g><g transform="translate(-10,-198) scale(1,1)"><path fill="#FFFFFF" stroke="none" d="M 1005.1438764363571 251.83481639812743 C 1005.1438764363571 247.96882279812743 1008.2778828363571 244.83481639812743 1012.1438764363571 244.83481639812743 C 1016.0098700363571 244.83481639812743 1019.1438764363571 247.96882279812743 1019.1438764363571 251.83481639812743 C 1019.1438764363571 255.70080999812743 1016.0098700363571 258.83481639812743 1012.1438764363571 258.83481639812743 C 1008.2778828363571 258.83481639812743 1005.1438764363571 255.70080999812743 1005.1438764363571 251.83481639812743 Z"/></g><g transform="translate(-10,-198) scale(1,1)"><path fill="none" stroke="#000000" d="M 1005.1438764363571 251.83481639812743 C 1005.1438764363571 247.96882279812743 1008.2778828363571 244.83481639812743 1012.1438764363571 244.83481639812743 C 1016.0098700363571 244.83481639812743 1019.1438764363571 247.96882279812743 1019.1438764363571 251.83481639812743 C 1019.1438764363571 255.70080999812743 1016.0098700363571 258.83481639812743 1012.1438764363571 258.83481639812743 C 1008.2778828363571 258.83481639812743 1005.1438764363571 255.70080999812743 1005.1438764363571 251.83481639812743 Z" stroke-miterlimit="10"/></g><g transform="translate(-10,-198) scale(1,1)"><path fill="none" stroke="#000000" d="M 1006.2877528727143 255.66963279625483 L 1018 248" stroke-miterlimit="10"/></g><g transform="translate(-10,-198) scale(1,1)"><path fill="none" stroke="#000000" d="M 1015.9786928344845 257.69093996177025 L 1008.3090600382297 245.97869283448458" stroke-miterlimit="10"/></g><g transform="translate(-10,-198) scale(1,1)"><path fill="none" stroke="#000000" d="M 1425 465 Q 1425 451 1085 248" stroke-miterlimit="10"/></g><g transform="translate(-10,-198) scale(1,1)"><path fill="#FFFFFF" stroke="none" d="M 1084.0102351549447 251.58846393074634 C 1084.0102351549447 247.72247033074635 1087.1442415549448 244.58846393074637 1091.0102351549447 244.58846393074637 C 1094.8762287549446 244.58846393074637 1098.0102351549447 247.72247033074635 1098.0102351549447 251.58846393074634 C 1098.0102351549447 255.45445753074634 1094.8762287549446 258.58846393074634 1091.0102351549447 258.58846393074634 C 1087.1442415549448 258.58846393074634 1084.0102351549447 255.45445753074634 1084.0102351549447 251.58846393074634 Z"/></g><g transform="translate(-10,-198) scale(1,1)"><path fill="none" stroke="#000000" d="M 1084.0102351549447 251.58846393074634 C 1084.0102351549447 247.72247033074635 1087.1442415549448 244.58846393074637 1091.0102351549447 244.58846393074637 C 1094.8762287549446 244.58846393074637 1098.0102351549447 247.72247033074635 1098.0102351549447 251.58846393074634 C 1098.0102351549447 255.45445753074634 1094.8762287549446 258.58846393074634 1091.0102351549447 258.58846393074634 C 1087.1442415549448 258.58846393074634 1084.0102351549447 255.45445753074634 1084.0102351549447 251.58846393074634 Z" stroke-miterlimit="10"/></g><g transform="translate(-10,-198) scale(1,1)"><path fill="none" stroke="#000000" d="M 1097.0204703098893 255.17692786149271 L 1085 248" stroke-miterlimit="10"/></g><g transform="translate(-10,-198) scale(1,1)"><path fill="none" stroke="#000000" d="M 1094.5986990856911 245.57822877580173 L 1087.4217712241982 257.598699085691" stroke-miterlimit="10"/></g><g transform="translate(-10,-198) scale(1,1)"><path fill="none" stroke="#000000" d="M 1524 465 Q 1524 451 1086 244" stroke-miterlimit="10"/></g><g transform="translate(-10,-198) scale(1,1)"><path fill="#FFFFFF" stroke="none" d="M 1085.3288103581276 246.99101311445756 C 1085.3288103581276 243.12501951445756 1088.4628167581277 239.99101311445756 1092.3288103581276 239.99101311445756 C 1096.1948039581275 239.99101311445756 1099.3288103581276 243.12501951445756 1099.3288103581276 246.99101311445756 C 1099.3288103581276 250.85700671445755 1096.1948039581275 253.99101311445756 1092.3288103581276 253.99101311445756 C 1088.4628167581277 253.99101311445756 1085.3288103581276 250.85700671445755 1085.3288103581276 246.99101311445756 Z"/></g><g transform="translate(-10,-198) scale(1,1)"><path fill="none" stroke="#000000" d="M 1085.3288103581276 246.99101311445756 C 1085.3288103581276 243.12501951445756 1088.4628167581277 239.99101311445756 1092.3288103581276 239.99101311445756 C 1096.1948039581275 239.99101311445756 1099.3288103581276 243.12501951445756 1099.3288103581276 246.99101311445756 C 1099.3288103581276 250.85700671445755 1096.1948039581275 253.99101311445756 1092.3288103581276 253.99101311445756 C 1088.4628167581277 253.99101311445756 1085.3288103581276 250.85700671445755 1085.3288103581276 246.99101311445756 Z" stroke-miterlimit="10"/></g><g transform="translate(-10,-198) scale(1,1)"><path fill="none" stroke="#000000" d="M 1098.6576207162552 249.98202622891512 L 1086 244" stroke-miterlimit="10"/></g><g transform="translate(-10,-198) scale(1,1)"><path fill="none" stroke="#000000" d="M 1095.319823472585 240.66220275632998 L 1089.3377972436701 253.31982347258514" stroke-miterlimit="10"/></g><g transform="translate(-10,-198) scale(1,1)"><rect fill="#C0C0C0" stroke="none" x="27" y="543" width="235" height="190" opacity="0.2"/></g><g transform="translate(-10,-198) scale(1,1)"><rect fill="#ffffff" stroke="none" x="20" y="536" width="235" height="190"/></g><g transform="translate(-10,-198) scale(1,1)"><path fill="none" stroke="#000000" d="M 20 536 L 255 536 L 255 726 L 20 726 L 20 536 Z Z" stroke-miterlimit="10"/></g><g transform="translate(-10,-198) scale(1,1)"><path fill="none" stroke="#000000" d="M 20 561 L 255 561" stroke-miterlimit="10"/></g><g transform="translate(-10,-198) scale(1,1)"><path fill="none" stroke="#000000" d="M 20 644 L 255 644" stroke-miterlimit="10"/></g><g transform="translate(-10,-198) scale(1,1)"><g><path fill="none" stroke="none"/><text fill="#000000" stroke="none" font-family="Arial" font-size="13px" font-style="normal" font-weight="bold" text-decoration="none" x="124" y="555.5">Auth</text></g></g><g transform="translate(-10,-198) scale(1,1)"><g><path fill="none" stroke="none"/><text fill="#000000" stroke="none" font-family="Arial" font-size="13px" font-style="normal" font-weight="normal" text-decoration="none" x="25" y="578.5">-username: String</text></g></g><g transform="translate(-10,-198) scale(1,1)"><g><path fill="none" stroke="none"/><text fill="#000000" stroke="none" font-family="Arial" font-size="13px" font-style="normal" font-weight="normal" text-decoration="none" x="25" y="593.5">-password: char</text></g></g><g transform="translate(-10,-198) scale(1,1)"><g><path fill="none" stroke="none"/><text fill="#000000" stroke="none" font-family="Arial" font-size="13px" font-style="normal" font-weight="normal" text-decoration="none" x="25" y="608.5">-token: String</text></g></g><g transform="translate(-10,-198) scale(1,1)"><g><path fill="none" stroke="none"/><text fill="#000000" stroke="none" font-family="Arial" font-size="13px" font-style="normal" font-weight="normal" text-decoration="none" x="25" y="623.5">-mode: int</text></g></g><g transform="translate(-10,-198) scale(1,1)"><g><path fill="none" stroke="none"/><text fill="#000000" stroke="none" font-family="Arial" font-size="13px" font-style="normal" font-weight="normal" text-decoration="none" x="25" y="638.5">-id: int</text></g></g><g transform="translate(-10,-198) scale(1,1)"><g><path fill="none" stroke="none"/><text fill="#000000" stroke="none" font-family="Arial" font-size="13px" font-style="normal" font-weight="normal" text-decoration="none" x="25" y="661.5">+Auth(username: String)</text></g></g><g transform="translate(-10,-198) scale(1,1)"><g><path fill="none" stroke="none"/><text fill="#000000" stroke="none" font-family="Arial" font-size="13px" font-style="normal" font-weight="normal" text-decoration="none" x="25" y="676.5">+login()</text></g></g><g transform="translate(-10,-198) scale(1,1)"><g><path fill="none" stroke="none"/><text fill="#000000" stroke="none" font-family="Arial" font-size="13px" font-style="normal" font-weight="normal" text-decoration="none" x="25" y="691.5">+check()</text></g></g><g transform="translate(-10,-198) scale(1,1)"><g><path fill="none" stroke="none"/><text fill="#000000" stroke="none" font-family="Arial" font-size="13px" font-style="normal" font-weight="normal" text-decoration="none" x="25" y="706.5">+toJSON(): JSONObject</text></g></g><g transform="translate(-10,-198) scale(1,1)"><g><path fill="none" stroke="none"/><text fill="#000000" stroke="none" font-family="Arial" font-size="13px" font-style="normal" font-weight="normal" text-decoration="none" x="25" y="721.5">+authorize(conn: HttpsURLConnection)</text></g></g><g transform="translate(-10,-198) scale(1,1)"><rect fill="#C0C0C0" stroke="none" x="293" y="616" width="100" height="44" opacity="0.2"/></g><g transform="translate(-10,-198) scale(1,1)"><rect fill="#ffffff" stroke="none" x="286" y="609" width="100" height="44"/></g><g transform="translate(-10,-198) scale(1,1)"><path fill="none" stroke="#000000" d="M 286 609 L 386 609 L 386 653 L 286 653 L 286 609 Z Z" stroke-miterlimit="10"/></g><g transform="translate(-10,-198) scale(1,1)"><path fill="none" stroke="#000000" d="M 286 634 L 386 634" stroke-miterlimit="10"/></g><g transform="translate(-10,-198) scale(1,1)"><path fill="none" stroke="#000000" d="M 286 644 L 386 644" stroke-miterlimit="10"/></g><g transform="translate(-10,-198) scale(1,1)"><g><path fill="none" stroke="none"/><text fill="#000000" stroke="none" font-family="Arial" font-size="13px" font-style="normal" font-weight="bold" text-decoration="none" x="293.5" y="628.5">AuthException</text></g></g><g transform="translate(-10,-198) scale(1,1)"><path fill="none" stroke="#000000" d="M 138 535 Q 138 521 187 503" stroke-miterlimit="10"/></g><g transform="translate(-10,-198) scale(1,1)"><path fill="#FFFFFF" stroke="none" d="M 173.4293116833829 505.4137222387574 C 173.4293116833829 501.54772863875735 176.5633180833829 498.4137222387573 180.4293116833829 498.4137222387573 C 184.2953052833829 498.4137222387573 187.4293116833829 501.54772863875735 187.4293116833829 505.4137222387574 C 187.4293116833829 509.2797158387574 184.2953052833829 512.4137222387574 180.4293116833829 512.4137222387574 C 176.5633180833829 512.4137222387574 173.4293116833829 509.2797158387574 173.4293116833829 505.4137222387574 Z"/></g><g transform="translate(-10,-198) scale(1,1)"><path fill="none" stroke="#000000" d="M 173.4293116833829 505.4137222387574 C 173.4293116833829 501.54772863875735 176.5633180833829 498.4137222387573 180.4293116833829 498.4137222387573 C 184.2953052833829 498.4137222387573 187.4293116833829 501.54772863875735 187.4293116833829 505.4137222387574 C 187.4293116833829 509.2797158387574 184.2953052833829 512.4137222387574 180.4293116833829 512.4137222387574 C 176.5633180833829 512.4137222387574 173.4293116833829 509.2797158387574 173.4293116833829 505.4137222387574 Z" stroke-miterlimit="10"/></g><g transform="translate(-10,-198) scale(1,1)"><path fill="none" stroke="#000000" d="M 173.8586233667658 507.82744447751463 L 187 503" stroke-miterlimit="10"/></g><g transform="translate(-10,-198) scale(1,1)"><path fill="none" stroke="#000000" d="M 182.84303392214022 511.98441055537444 L 178.0155894446256 498.8430339221402" stroke-miterlimit="10"/></g><g transform="translate(-10,-198) scale(1,1)"><path fill="none" stroke="#000000" d="M 336 608 Q 337 521 286 503" stroke-miterlimit="10"/></g><g transform="translate(-10,-198) scale(1,1)"><path fill="#FFFFFF" stroke="none" d="M 285.60093233508024 505.32974082414603 C 285.60093233508024 501.463747224146 288.7349387350802 498.329740824146 292.60093233508024 498.329740824146 C 296.46692593508027 498.329740824146 299.60093233508024 501.463747224146 299.60093233508024 505.32974082414603 C 299.60093233508024 509.19573442414605 296.46692593508027 512.329740824146 292.60093233508024 512.329740824146 C 288.7349387350802 512.329740824146 285.60093233508024 509.19573442414605 285.60093233508024 505.32974082414603 Z"/></g><g transform="translate(-10,-198) scale(1,1)"><path fill="none" stroke="#000000" d="M 285.60093233508024 505.32974082414603 C 285.60093233508024 501.463747224146 288.7349387350802 498.329740824146 292.60093233508024 498.329740824146 C 296.46692593508027 498.329740824146 299.60093233508024 501.463747224146 299.60093233508024 505.32974082414603 C 299.60093233508024 509.19573442414605 296.46692593508027 512.329740824146 292.60093233508024 512.329740824146 C 288.7349387350802 512.329740824146 285.60093233508024 509.19573442414605 285.60093233508024 505.32974082414603 Z" stroke-miterlimit="10"/></g><g transform="translate(-10,-198) scale(1,1)"><path fill="none" stroke="#000000" d="M 299.20186467016043 507.65948164829194 L 286 503" stroke-miterlimit="10"/></g><g transform="translate(-10,-198) scale(1,1)"><path fill="none" stroke="#000000" d="M 294.9306731592262 498.7288084890657 L 290.2711915109343 511.9306731592262" stroke-miterlimit="10"/></g><g transform="translate(-10,-198) scale(1,1)"><rect fill="#C0C0C0" stroke="none" x="1169" y="557" width="313" height="162" opacity="0.2"/></g><g transform="translate(-10,-198) scale(1,1)"><rect fill="#ffffff" stroke="none" x="1162" y="550" width="313" height="162"/></g><g transform="translate(-10,-198) scale(1,1)"><path fill="none" stroke="#000000" d="M 1162 550 L 1475 550 L 1475 712 L 1162 712 L 1162 550 Z Z" stroke-miterlimit="10"/></g><g transform="translate(-10,-198) scale(1,1)"><path fill="none" stroke="#000000" d="M 1162 575 L 1475 575" stroke-miterlimit="10"/></g><g transform="translate(-10,-198) scale(1,1)"><path fill="none" stroke="#000000" d="M 1162 585 L 1475 585" stroke-miterlimit="10"/></g><g transform="translate(-10,-198) scale(1,1)"><g><path fill="none" stroke="none"/><text fill="#000000" stroke="none" font-family="Arial" font-size="13px" font-style="normal" font-weight="bold" text-decoration="none" x="1302" y="569.5">Client</text></g></g><g transform="translate(-10,-198) scale(1,1)"><g><path fill="none" stroke="none"/><text fill="#000000" stroke="none" font-family="Arial" font-size="13px" font-style="normal" font-weight="normal" text-decoration="none" x="1167" y="602.5">+getFile(file: GBFile)</text></g></g><g transform="translate(-10,-198) scale(1,1)"><g><path fill="none" stroke="none"/><text fill="#000000" stroke="none" font-family="Arial" font-size="13px" font-style="normal" font-weight="normal" text-decoration="none" x="1167" y="617.5">+getFile(file: GBFile, dst: OutputStream)</text></g></g><g transform="translate(-10,-198) scale(1,1)"><g><path fill="none" stroke="none"/><text fill="#000000" stroke="none" font-family="Arial" font-size="13px" font-style="normal" font-weight="normal" text-decoration="none" x="1167" y="632.5">+uploadFile(file: GBFile)</text></g></g><g transform="translate(-10,-198) scale(1,1)"><g><path fill="none" stroke="none"/><text fill="#000000" stroke="none" font-family="Arial" font-size="13px" font-style="normal" font-weight="normal" text-decoration="none" x="1167" y="647.5">+uploadFile(file: GBFile, src InputStream)</text></g></g><g transform="translate(-10,-198) scale(1,1)"><g><path fill="none" stroke="none"/><text fill="#000000" stroke="none" font-family="Arial" font-size="13px" font-style="normal" font-weight="normal" text-decoration="none" x="1167" y="662.5">+removeFile(file: GBFile)</text></g></g><g transform="translate(-10,-198) scale(1,1)"><g><path fill="none" stroke="none"/><text fill="#000000" stroke="none" font-family="Arial" font-size="13px" font-style="normal" font-weight="normal" text-decoration="none" x="1167" y="677.5">+updateFile(file: GBFile)</text></g></g><g transform="translate(-10,-198) scale(1,1)"><g><path fill="none" stroke="none"/><text fill="#000000" stroke="none" font-family="Arial" font-size="13px" font-style="normal" font-weight="normal" text-decoration="none" x="1167" y="692.5">+updateFile(file: GBFile, src: InputStream)</text></g></g><g transform="translate(-10,-198) scale(1,1)"><g><path fill="none" stroke="none"/><text fill="#000000" stroke="none" font-family="Arial" font-size="13px" font-style="normal" font-weight="normal" text-decoration="none" x="1167" y="707.5">+setSyncEventListener(listener: SyncEventListener)</text></g></g><g transform="translate(-10,-198) scale(1,1)"><path fill="none" stroke="#000000" d="M 1319 549 Q 1319 521 1390 497" stroke-miterlimit="10"/></g><g transform="translate(-10,-198) scale(1,1)"><path fill="#FFFFFF" stroke="none" d="M 1376.368616004623 499.2415945899866 C 1376.368616004623 495.3756009899866 1379.502622404623 492.2415945899866 1383.368616004623 492.2415945899866 C 1387.2346096046228 492.2415945899866 1390.368616004623 495.3756009899866 1390.368616004623 499.2415945899866 C 1390.368616004623 503.10758818998664 1387.2346096046228 506.2415945899866 1383.368616004623 506.2415945899866 C 1379.502622404623 506.2415945899866 1376.368616004623 503.10758818998664 1376.368616004623 499.2415945899866 Z"/></g><g transform="translate(-10,-198) scale(1,1)"><path fill="none" stroke="#000000" d="M 1376.368616004623 499.2415945899866 C 1376.368616004623 495.3756009899866 1379.502622404623 492.2415945899866 1383.368616004623 492.2415945899866 C 1387.2346096046228 492.2415945899866 1390.368616004623 495.3756009899866 1390.368616004623 499.2415945899866 C 1390.368616004623 503.10758818998664 1387.2346096046228 506.2415945899866 1383.368616004623 506.2415945899866 C 1379.502622404623 506.2415945899866 1376.368616004623 503.10758818998664 1376.368616004623 499.2415945899866 Z" stroke-miterlimit="10"/></g><g transform="translate(-10,-198) scale(1,1)"><path fill="none" stroke="#000000" d="M 1376.7372320092459 501.48318917997324 L 1390 497" stroke-miterlimit="10"/></g><g transform="translate(-10,-198) scale(1,1)"><path fill="none" stroke="#000000" d="M 1385.6102105946095 505.8729785853637 L 1381.1270214146364 492.61021059460955" stroke-miterlimit="10"/></g><g transform="translate(-10,-198) scale(1,1)"><rect fill="#C0C0C0" stroke="none" x="1275" y="764" width="101" height="44" opacity="0.2"/></g><g transform="translate(-10,-198) scale(1,1)"><rect fill="#ffffff" stroke="none" x="1268" y="757" width="101" height="44"/></g><g transform="translate(-10,-198) scale(1,1)"><path fill="none" stroke="#000000" d="M 1268 757 L 1369 757 L 1369 801 L 1268 801 L 1268 757 Z Z" stroke-miterlimit="10"/></g><g transform="translate(-10,-198) scale(1,1)"><path fill="none" stroke="#000000" d="M 1268 782 L 1369 782" stroke-miterlimit="10"/></g><g transform="translate(-10,-198) scale(1,1)"><path fill="none" stroke="#000000" d="M 1268 792 L 1369 792" stroke-miterlimit="10"/></g><g transform="translate(-10,-198) scale(1,1)"><g><path fill="none" stroke="none"/><text fill="#000000" stroke="none" font-family="Arial" font-size="13px" font-style="normal" font-weight="bold" text-decoration="none" x="1276" y="776.5">StandardClient</text></g></g><g transform="translate(-10,-198) scale(1,1)"><path fill="none" stroke="#000000" d="M 1319 756 Q 1319 742 1319 713" stroke-miterlimit="10"/></g><g transform="translate(-10,-198) scale(1,1)"><path fill="none" stroke="#000000" d="M 1323.2095177560159 723.1626748576241 L 1319 713 L 1314.7904822439841 723.1626748576241" stroke-miterlimit="10"/></g><g transform="translate(-10,-198) scale(1,1)"><rect fill="#C0C0C0" stroke="none" x="1513" y="616" width="50" height="44" opacity="0.2"/></g><g transform="translate(-10,-198) scale(1,1)"><rect fill="#ffffff" stroke="none" x="1506" y="609" width="50" height="44"/></g><g transform="translate(-10,-198) scale(1,1)"><path fill="none" stroke="#000000" d="M 1506 609 L 1556 609 L 1556 653 L 1506 653 L 1506 609 Z Z" stroke-miterlimit="10"/></g><g transform="translate(-10,-198) scale(1,1)"><path fill="none" stroke="#000000" d="M 1506 634 L 1556 634" stroke-miterlimit="10"/></g><g transform="translate(-10,-198) scale(1,1)"><path fill="none" stroke="#000000" d="M 1506 644 L 1556 644" stroke-miterlimit="10"/></g><g transform="translate(-10,-198) scale(1,1)"><g><path fill="none" stroke="none"/><text fill="#000000" stroke="none" font-family="Arial" font-size="13px" font-style="normal" font-weight="bold" text-decoration="none" x="1516" y="628.5">Sync</text></g></g><g transform="translate(-10,-198) scale(1,1)"><path fill="none" stroke="#000000" d="M 1531 608 Q 1532 521 1460 497" stroke-miterlimit="10"/></g><g transform="translate(-10,-198) scale(1,1)"><path fill="#FFFFFF" stroke="none" d="M 1459.6407830863536 499.2135943621179 C 1459.6407830863536 495.34760076211785 1462.7747894863537 492.2135943621179 1466.6407830863536 492.2135943621179 C 1470.5067766863535 492.2135943621179 1473.6407830863536 495.34760076211785 1473.6407830863536 499.2135943621179 C 1473.6407830863536 503.0795879621179 1470.5067766863535 506.2135943621179 1466.6407830863536 506.2135943621179 C 1462.7747894863537 506.2135943621179 1459.6407830863536 503.0795879621179 1459.6407830863536 499.2135943621179 Z"/></g><g transform="translate(-10,-198) scale(1,1)"><path fill="none" stroke="#000000" d="M 1459.6407830863536 499.2135943621179 C 1459.6407830863536 495.34760076211785 1462.7747894863537 492.2135943621179 1466.6407830863536 492.2135943621179 C 1470.5067766863535 492.2135943621179 1473.6407830863536 495.34760076211785 1473.6407830863536 499.2135943621179 C 1473.6407830863536 503.0795879621179 1470.5067766863535 506.2135943621179 1466.6407830863536 506.2135943621179 C 1462.7747894863537 506.2135943621179 1459.6407830863536 503.0795879621179 1459.6407830863536 499.2135943621179 Z" stroke-miterlimit="10"/></g><g transform="translate(-10,-198) scale(1,1)"><path fill="none" stroke="#000000" d="M 1473.2815661727072 501.42718872423575 L 1460 497" stroke-miterlimit="10"/></g><g transform="translate(-10,-198) scale(1,1)"><path fill="none" stroke="#000000" d="M 1468.8543774484715 492.57281127576425 L 1464.4271887242357 505.8543774484715" stroke-miterlimit="10"/></g><g transform="translate(-10,-198) scale(1,1)"><rect fill="#C0C0C0" stroke="none" x="762" y="602" width="376" height="72" opacity="0.2"/></g><g transform="translate(-10,-198) scale(1,1)"><rect fill="#ffffff" stroke="none" x="755" y="595" width="376" height="72"/></g><g transform="translate(-10,-198) scale(1,1)"><path fill="none" stroke="#000000" d="M 755 595 L 1131 595 L 1131 667 L 755 667 L 755 595 Z Z" stroke-miterlimit="10"/></g><g transform="translate(-10,-198) scale(1,1)"><path fill="none" stroke="#000000" d="M 755 620 L 1131 620" stroke-miterlimit="10"/></g><g transform="translate(-10,-198) scale(1,1)"><path fill="none" stroke="#000000" d="M 755 630 L 1131 630" stroke-miterlimit="10"/></g><g transform="translate(-10,-198) scale(1,1)"><g><path fill="none" stroke="none"/><text fill="#000000" stroke="none" font-family="Arial" font-size="13px" font-style="normal" font-weight="bold" text-decoration="none" x="911" y="614.5">EasyHTTP</text></g></g><g transform="translate(-10,-198) scale(1,1)"><g><path fill="none" stroke="none"/><text fill="#000000" stroke="none" font-family="Arial" font-size="13px" font-style="normal" font-weight="normal" text-decoration="none" x="760" y="647.5">+post(url: String, data: JSONObject, auth: String): JSONObject</text></g></g><g transform="translate(-10,-198) scale(1,1)"><g><path fill="none" stroke="none"/><text fill="#000000" stroke="none" font-family="Arial" font-size="13px" font-style="normal" font-weight="normal" text-decoration="none" x="760" y="662.5">+post(url: URL, data: JSONObject, auth: String): JSONObject</text></g></g><g transform="translate(-10,-198) scale(1,1)"><rect fill="#C0C0C0" stroke="none" x="424" y="602" width="307" height="72" opacity="0.2"/></g><g transform="translate(-10,-198) scale(1,1)"><rect fill="#ffffff" stroke="none" x="417" y="595" width="307" height="72"/></g><g transform="translate(-10,-198) scale(1,1)"><path fill="none" stroke="#000000" d="M 417 595 L 724 595 L 724 667 L 417 667 L 417 595 Z Z" stroke-miterlimit="10"/></g><g transform="translate(-10,-198) scale(1,1)"><path fill="none" stroke="#000000" d="M 417 620 L 724 620" stroke-miterlimit="10"/></g><g transform="translate(-10,-198) scale(1,1)"><path fill="none" stroke="#000000" d="M 417 630 L 724 630" stroke-miterlimit="10"/></g><g transform="translate(-10,-198) scale(1,1)"><g><path fill="none" stroke="none"/><text fill="#000000" stroke="none" font-family="Arial" font-size="13px" font-style="normal" font-weight="bold" text-decoration="none" x="535.5" y="614.5">URLParams</text></g></g><g transform="translate(-10,-198) scale(1,1)"><g><path fill="none" stroke="none"/><text fill="#000000" stroke="none" font-family="Arial" font-size="13px" font-style="normal" font-weight="normal" text-decoration="none" x="422" y="647.5">+createURL(url: String, params: JSONObject): URL</text></g></g><g transform="translate(-10,-198) scale(1,1)"><g><path fill="none" stroke="none"/><text fill="#000000" stroke="none" font-family="Arial" font-size="13px" font-style="normal" font-weight="normal" text-decoration="none" x="422" y="662.5">+createURL(url: URL, params: JSONObject): URL</text></g></g><g transform="translate(-10,-198) scale(1,1)"><path fill="none" stroke="#000000" d="M 570 594 Q 571 521 672 494" stroke-miterlimit="10"/></g><g transform="translate(-10,-198) scale(1,1)"><path fill="#FFFFFF" stroke="none" d="M 658.237468005599 495.8078055826617 C 658.237468005599 491.94181198266165 661.371474405599 488.8078055826617 665.237468005599 488.8078055826617 C 669.103461605599 488.8078055826617 672.237468005599 491.94181198266165 672.237468005599 495.8078055826617 C 672.237468005599 499.6737991826617 669.103461605599 502.8078055826617 665.237468005599 502.8078055826617 C 661.371474405599 502.8078055826617 658.237468005599 499.6737991826617 658.237468005599 495.8078055826617 Z"/></g><g transform="translate(-10,-198) scale(1,1)"><path fill="none" stroke="#000000" d="M 658.237468005599 495.8078055826617 C 658.237468005599 491.94181198266165 661.371474405599 488.8078055826617 665.237468005599 488.8078055826617 C 669.103461605599 488.8078055826617 672.237468005599 491.94181198266165 672.237468005599 495.8078055826617 C 672.237468005599 499.6737991826617 669.103461605599 502.8078055826617 665.237468005599 502.8078055826617 C 661.371474405599 502.8078055826617 658.237468005599 499.6737991826617 658.237468005599 495.8078055826617 Z" stroke-miterlimit="10"/></g><g transform="translate(-10,-198) scale(1,1)"><path fill="none" stroke="#000000" d="M 658.474936011198 497.61561116532334 L 672 494" stroke-miterlimit="10"/></g><g transform="translate(-10,-198) scale(1,1)"><path fill="none" stroke="#000000" d="M 667.0452735882607 502.5703375770627 L 663.4296624229373 489.04527358826067" stroke-miterlimit="10"/></g><g transform="translate(-10,-198) scale(1,1)"><path fill="none" stroke="#000000" d="M 943 594 Q 944 521 742 490" stroke-miterlimit="10"/></g><g transform="translate(-10,-198) scale(1,1)"><path fill="#FFFFFF" stroke="none" d="M 741.9189973870044 491.061826331669 C 741.9189973870044 487.195832731669 745.0530037870044 484.061826331669 748.9189973870044 484.061826331669 C 752.7849909870044 484.061826331669 755.9189973870044 487.195832731669 755.9189973870044 491.061826331669 C 755.9189973870044 494.92781993166903 752.7849909870044 498.061826331669 748.9189973870044 498.061826331669 C 745.0530037870044 498.061826331669 741.9189973870044 494.92781993166903 741.9189973870044 491.061826331669 Z"/></g><g transform="translate(-10,-198) scale(1,1)"><path fill="none" stroke="#000000" d="M 741.9189973870044 491.061826331669 C 741.9189973870044 487.195832731669 745.0530037870044 484.061826331669 748.9189973870044 484.061826331669 C 752.7849909870044 484.061826331669 755.9189973870044 487.195832731669 755.9189973870044 491.061826331669 C 755.9189973870044 494.92781993166903 752.7849909870044 498.061826331669 748.9189973870044 498.061826331669 C 745.0530037870044 498.061826331669 741.9189973870044 494.92781993166903 741.9189973870044 491.061826331669 Z" stroke-miterlimit="10"/></g><g transform="translate(-10,-198) scale(1,1)"><path fill="none" stroke="#000000" d="M 755.8379947740088 492.123652663338 L 742 490" stroke-miterlimit="10"/></g><g transform="translate(-10,-198) scale(1,1)"><path fill="none" stroke="#000000" d="M 749.9808237186734 484.1428289446646 L 747.8571710553355 497.98082371867343" stroke-miterlimit="10"/></g><g transform="translate(-10,-198) scale(1,1)"><rect fill="#C0C0C0" stroke="none" x="1071" y="871" width="353" height="415" opacity="0.2"/></g><g transform="translate(-10,-198) scale(1,1)"><rect fill="#ffffff" stroke="none" x="1064" y="864" width="353" height="415"/></g><g transform="translate(-10,-198) scale(1,1)"><path fill="none" stroke="#000000" d="M 1064 864 L 1417 864 L 1417 1279 L 1064 1279 L 1064 864 Z Z" stroke-miterlimit="10"/></g><g transform="translate(-10,-198) scale(1,1)"><path fill="none" stroke="#000000" d="M 1064 889 L 1417 889" stroke-miterlimit="10"/></g><g transform="translate(-10,-198) scale(1,1)"><path fill="none" stroke="#000000" d="M 1064 1092 L 1417 1092" stroke-miterlimit="10"/></g><g transform="translate(-10,-198) scale(1,1)"><g><path fill="none" stroke="none"/><text fill="#000000" stroke="none" font-family="Arial" font-size="13px" font-style="normal" font-weight="bold" text-decoration="none" x="1220.5" y="883.5">GBFile</text></g></g><g transform="translate(-10,-198) scale(1,1)"><g><path fill="none" stroke="none"/><text fill="#000000" stroke="none" font-family="Arial" font-size="13px" font-style="normal" font-weight="normal" text-decoration="none" x="1069" y="906.5">+ROOT_ID: int</text></g></g><g transform="translate(-10,-198) scale(1,1)"><g><path fill="none" stroke="none"/><text fill="#000000" stroke="none" font-family="Arial" font-size="13px" font-style="normal" font-weight="normal" text-decoration="none" x="1069" y="921.5">+UNKNOW_ID: int</text></g></g><g transform="translate(-10,-198) scale(1,1)"><g><path fill="none" stroke="none"/><text fill="#000000" stroke="none" font-family="Arial" font-size="13px" font-style="normal" font-weight="normal" text-decoration="none" x="1069" y="936.5">+UNKNOW_FATHER: int</text></g></g><g transform="translate(-10,-198) scale(1,1)"><g><path fill="none" stroke="none"/><text fill="#000000" stroke="none" font-family="Arial" font-size="13px" font-style="normal" font-weight="normal" text-decoration="none" x="1069" y="951.5">-ID: long</text></g></g><g transform="translate(-10,-198) scale(1,1)"><g><path fill="none" stroke="none"/><text fill="#000000" stroke="none" font-family="Arial" font-size="13px" font-style="normal" font-weight="normal" text-decoration="none" x="1069" y="966.5">-fatherID: long</text></g></g><g transform="translate(-10,-198) scale(1,1)"><g><path fill="none" stroke="none"/><text fill="#000000" stroke="none" font-family="Arial" font-size="13px" font-style="normal" font-weight="normal" text-decoration="none" x="1069" y="981.5">-isDirectory: boolean</text></g></g><g transform="translate(-10,-198) scale(1,1)"><g><path fill="none" stroke="none"/><text fill="#000000" stroke="none" font-family="Arial" font-size="13px" font-style="normal" font-weight="normal" text-decoration="none" x="1069" y="996.5">-size: long</text></g></g><g transform="translate(-10,-198) scale(1,1)"><g><path fill="none" stroke="none"/><text fill="#000000" stroke="none" font-family="Arial" font-size="13px" font-style="normal" font-weight="normal" text-decoration="none" x="1069" y="1011.5">-name: String</text></g></g><g transform="translate(-10,-198) scale(1,1)"><g><path fill="none" stroke="none"/><text fill="#000000" stroke="none" font-family="Arial" font-size="13px" font-style="normal" font-weight="normal" text-decoration="none" x="1069" y="1026.5">-creationDate: long</text></g></g><g transform="translate(-10,-198) scale(1,1)"><g><path fill="none" stroke="none"/><text fill="#000000" stroke="none" font-family="Arial" font-size="13px" font-style="normal" font-weight="normal" text-decoration="none" x="1069" y="1041.5">-lastUpdateDate: long</text></g></g><g transform="translate(-10,-198) scale(1,1)"><g><path fill="none" stroke="none"/><text fill="#000000" stroke="none" font-family="Arial" font-size="13px" font-style="normal" font-weight="normal" text-decoration="none" x="1069" y="1056.5">-path: List&lt;String&gt;</text></g></g><g transform="translate(-10,-198) scale(1,1)"><g><path fill="none" stroke="none"/><text fill="#000000" stroke="none" font-family="Arial" font-size="13px" font-style="normal" font-weight="normal" text-decoration="none" x="1069" y="1071.5">-hash: HashCode</text></g></g><g transform="translate(-10,-198) scale(1,1)"><g><path fill="none" stroke="none"/><text fill="#000000" stroke="none" font-family="Arial" font-size="13px" font-style="normal" font-weight="normal" text-decoration="none" x="1069" y="1086.5">-javaFile: File</text></g></g><g transform="translate(-10,-198) scale(1,1)"><g><path fill="none" stroke="none"/><text fill="#000000" stroke="none" font-family="Arial" font-size="13px" font-style="normal" font-weight="normal" text-decoration="none" x="1069" y="1109.5">+GBFile(json: JSONObject)</text></g></g><g transform="translate(-10,-198) scale(1,1)"><g><path fill="none" stroke="none"/><text fill="#000000" stroke="none" font-family="Arial" font-size="13px" font-style="normal" font-weight="normal" text-decoration="none" x="1069" y="1124.5">+GBFile(name: String, fatherID: long, isDirectory: boolean)</text></g></g><g transform="translate(-10,-198) scale(1,1)"><g><path fill="none" stroke="none"/><text fill="#000000" stroke="none" font-family="Arial" font-size="13px" font-style="normal" font-weight="normal" text-decoration="none" x="1069" y="1139.5">+GBFile(ID: long, fatherID: long, name: String, dir: boolean)</text></g></g><g transform="translate(-10,-198) scale(1,1)"><g><path fill="none" stroke="none"/><text fill="#000000" stroke="none" font-family="Arial" font-size="13px" font-style="normal" font-weight="normal" text-decoration="none" x="1069" y="1154.5">+toJSON(): JSONObject</text></g></g><g transform="translate(-10,-198) scale(1,1)"><g><path fill="none" stroke="none"/><text fill="#000000" stroke="none" font-family="Arial" font-size="13px" font-style="normal" font-weight="normal" text-decoration="none" x="1069" y="1169.5">+getHash(): HashCode</text></g></g><g transform="translate(-10,-198) scale(1,1)"><g><path fill="none" stroke="none"/><text fill="#000000" stroke="none" font-family="Arial" font-size="13px" font-style="normal" font-weight="normal" text-decoration="none" x="1069" y="1184.5">+toJSON(): JSONObject</text></g></g><g transform="translate(-10,-198) scale(1,1)"><g><path fill="none" stroke="none"/><text fill="#000000" stroke="none" font-family="Arial" font-size="13px" font-style="normal" font-weight="normal" text-decoration="none" x="1069" y="1199.5">+generateChild(name: String, dir: boolean): GBFile</text></g></g><g transform="translate(-10,-198) scale(1,1)"><g><path fill="none" stroke="none"/><text fill="#000000" stroke="none" font-family="Arial" font-size="13px" font-style="normal" font-weight="normal" text-decoration="none" x="1069" y="1214.5">+getPath(): String</text></g></g><g transform="translate(-10,-198) scale(1,1)"><g><path fill="none" stroke="none"/><text fill="#000000" stroke="none" font-family="Arial" font-size="13px" font-style="normal" font-weight="normal" text-decoration="none" x="1069" y="1229.5">+getListPath(): List&lt;String&gt;</text></g></g><g transform="translate(-10,-198) scale(1,1)"><g><path fill="none" stroke="none"/><text fill="#000000" stroke="none" font-family="Arial" font-size="13px" font-style="normal" font-weight="normal" text-decoration="none" x="1069" y="1244.5">+setPathByString(path: String)</text></g></g><g transform="translate(-10,-198) scale(1,1)"><g><path fill="none" stroke="none"/><text fill="#000000" stroke="none" font-family="Arial" font-size="13px" font-style="normal" font-weight="normal" text-decoration="none" x="1069" y="1259.5">+toFile(): File</text></g></g><g transform="translate(-10,-198) scale(1,1)"><g><path fill="none" stroke="none"/><text fill="#000000" stroke="none" font-family="Arial" font-size="13px" font-style="normal" font-weight="normal" text-decoration="none" x="1069" y="1274.5">+toPath(): Path</text></g></g><g transform="translate(-10,-198) scale(1,1)"><path fill="none" stroke="#000000" d="M 1193 863 L 1055 248" stroke-miterlimit="10"/></g><g transform="translate(-10,-198) scale(1,1)"><path fill="#FFFFFF" stroke="none" d="M 1049.5326210559524 254.83015905370087 C 1049.5326210559524 250.96416545370087 1052.6666274559525 247.83015905370084 1056.5326210559524 247.83015905370084 C 1060.3986146559523 247.83015905370084 1063.5326210559524 250.96416545370087 1063.5326210559524 254.83015905370087 C 1063.5326210559524 258.6961526537009 1060.3986146559523 261.83015905370087 1056.5326210559524 261.83015905370087 C 1052.6666274559525 261.83015905370087 1049.5326210559524 258.6961526537009 1049.5326210559524 254.83015905370087 Z"/></g><g transform="translate(-10,-198) scale(1,1)"><path fill="none" stroke="#000000" d="M 1049.5326210559524 254.83015905370087 C 1049.5326210559524 250.96416545370087 1052.6666274559525 247.83015905370084 1056.5326210559524 247.83015905370084 C 1060.3986146559523 247.83015905370084 1063.5326210559524 250.96416545370087 1063.5326210559524 254.83015905370087 C 1063.5326210559524 258.6961526537009 1060.3986146559523 261.83015905370087 1056.5326210559524 261.83015905370087 C 1052.6666274559525 261.83015905370087 1049.5326210559524 258.6961526537009 1049.5326210559524 254.83015905370087 Z" stroke-miterlimit="10"/></g><g transform="translate(-10,-198) scale(1,1)"><path fill="none" stroke="#000000" d="M 1058.0652421119048 261.6603181074017 L 1055 248" stroke-miterlimit="10"/></g><g transform="translate(-10,-198) scale(1,1)"><path fill="none" stroke="#000000" d="M 1063.3627801096532 253.29753799774846 L 1049.7024620022517 256.3627801096532" stroke-miterlimit="10"/></g></g></svg>